<svg xmlns="http://www.w3.org/2000/svg" xmlns:xlink="http://www.w3.org/1999/xlink" width="1199" height="463" viewBox="0 0 1199 463"><defs><clipPath id="b"><rect width="1199" height="463"/></clipPath></defs><g id="a" clip-path="url(#b)"><g transform="translate(-69.647 -62.727)"><g transform="translate(642.354 168.827)"><path d="M17.3,29.3h54.48V-45.251L125.939,29.3h67.542L118.93-59.269l73.914-89.207H125.62L71.778-76.155V-206.46H17.3Zm177.458,0h54.48V-148.476h-54.48Zm197.21,0h54.161V-74.562c0-47.789-27.4-75.826-68.5-75.826-23.895,0-43.01,10.514-53.843,25.488v-23.576h-54.48V29.3h54.48V-67.234c0-24.213,13.381-37.594,34.09-37.594s34.09,13.381,34.09,37.594ZM638.559-59.588c0-56.391-40.143-91.437-92.393-91.437-51.931,0-92.393,35.046-92.393,91.437s39.506,91.437,91.755,91.437S638.559-3.2,638.559-59.588Zm-129.35,0c0-30.267,17.2-44.285,36.957-44.285,19.116,0,36.957,14.018,36.957,44.285,0,29.948-18.16,44.285-37.594,44.285C525.776-15.3,509.209-29.64,509.209-59.588Z" transform="translate(-17.298 216.585)" fill="#262626"/><rect width="56" height="47" transform="translate(177.294 -0.1)" fill="#fb9106"/></g><g transform="translate(75 67)"><path d="M856.833,68.373c0-139.557-99.345-226.287-228.652-226.287-128.519,0-228.653,86.73-228.653,226.287S497.3,294.661,626.6,294.661,856.833,207.93,856.833,68.373Z" transform="translate(-399.528 157.914)" fill="#262626"/><g transform="translate(136.784 117.042)"><g transform="translate(0)"><path d="M17.3-.506H64.89V-65.632L112.2-.506h59L106.081-77.878l64.569-77.928H111.925L64.89-92.629V-206.46H17.3Z" transform="translate(-17.298 206.46)" fill="#fff"/></g><rect width="50" height="32" transform="translate(172.863 174.685)" fill="#fb9106"/></g></g></g></g></svg>